<svg id="Layer_1" data-name="Layer 1" xmlns="http://www.w3.org/2000/svg" xmlns:xlink="http://www.w3.org/1999/xlink" viewBox="0 0 1082.88 342.66"><defs><style>.cls-1,.cls-2,.cls-3,.cls-4,.cls-5,.cls-6,.cls-7,.cls-8{fill-rule:evenodd;}.cls-1{fill:url(#linear-gradient);}.cls-2{fill:url(#Nouvelle_nuance_de_dégradé_1);}.cls-3{fill:url(#linear-gradient-2);}.cls-4{fill:url(#linear-gradient-3);}.cls-5{fill:url(#linear-gradient-4);}.cls-6{fill:url(#Nouvelle_nuance_de_dégradé_1-2);}.cls-7{fill:url(#Nouvelle_nuance_de_dégradé_1-3);}.cls-8{fill:url(#linear-gradient-5);}.cls-9{font-size:156px;fill:#fff;font-family:Ubuntu-Bold, Ubuntu;font-weight:700;}.cls-10{letter-spacing:0.04em;}.cls-11{letter-spacing:0em;}.cls-12{stroke: black;stroke-width: 4px;fill:url(#Dégradé_sans_nom_27);}</style><linearGradient id="linear-gradient" x1="33.29" y1="137.04" x2="278.84" y2="137.04" gradientUnits="userSpaceOnUse"><stop offset="0" stop-color="#662d80"/><stop offset="0.49" stop-color="#c10080"/><stop offset="1" stop-color="#ff5781"/></linearGradient><linearGradient id="Nouvelle_nuance_de_dégradé_1" x1="30.41" y1="245.88" x2="438.05" y2="245.88" gradientUnits="userSpaceOnUse"><stop offset="0" stop-color="#ff85ff"/><stop offset="0.49" stop-color="#9400b7"/><stop offset="1" stop-color="#5a00a1"/></linearGradient><linearGradient id="linear-gradient-2" x1="43.18" y1="300.52" x2="235.22" y2="300.52" gradientUnits="userSpaceOnUse"><stop offset="0" stop-color="#753eba"/><stop offset="0.34" stop-color="#259aba"/><stop offset="0.69" stop-color="#5ee4c6"/><stop offset="0.99" stop-color="#b4fff3"/></linearGradient><linearGradient id="linear-gradient-3" x1="282.07" y1="81.67" x2="-27.86" y2="81.67" gradientUnits="userSpaceOnUse"><stop offset="0" stop-color="#ffce86"/><stop offset="0.52" stop-color="#ff4f9d"/><stop offset="1" stop-color="#8b00b7"/></linearGradient><linearGradient id="linear-gradient-4" x1="232.74" y1="122.81" x2="-48.28" y2="122.81" xlink:href="#linear-gradient-3"/><linearGradient id="Nouvelle_nuance_de_dégradé_1-2" x1="53.88" y1="276.42" x2="468.44" y2="276.42" xlink:href="#Nouvelle_nuance_de_dégradé_1"/><linearGradient id="Nouvelle_nuance_de_dégradé_1-3" x1="91.24" y1="183.86" x2="401.17" y2="183.86" xlink:href="#Nouvelle_nuance_de_dégradé_1"/><linearGradient id="linear-gradient-5" x1="253.34" y1="49.67" x2="-20.21" y2="49.67" xlink:href="#linear-gradient-3"/><linearGradient id="Dégradé_sans_nom_27" x1="394.77" y1="181.69" x2="1111.73" y2="181.69" gradientUnits="userSpaceOnUse"><stop offset="0.49" stop-color="#fff"/><stop offset="0.52" stop-color="#ff85ff"/><stop offset="1" stop-color="#5a00a1"/></linearGradient></defs><title>logo_v2</title><path class="cls-1" d="M74,179.07c68.68-24.29,143.5-35.82,204.81-35.49C235.33,139.51,174.46,118.2,133.26,95c-27.47.66-79.88,19.23-96.91,40-5.06,6.15-3.41,16.26,1.76,22.3,9.44,11,25.6,17.91,35.92,21.76Z" transform="translate(-30.41 -6.04)"/><path class="cls-2" d="M282.14,212.25c11.53-2.64,22.52-5.27,30.65-8,32.52-10.88,26.15-46.59-4.39-56.26-9.78-3-20.77-3.95-29.56-4.39C221.16,140.39,126.77,156,74,179.07c-1.2.55-2.3,1.1-3.51,1.65-23,10.65-40.11,24.06-40.11,52.51v79c0,21.65,11.87,35.16,28,36.37-16.59-1.76-16.81-16.92-8.46-28,21.43-28.24,65.71-53.83,109.22-72.18,41.86-17.58,79.22-26.26,123-36.15Z" transform="translate(-30.41 -6.04)"/><path class="cls-3" d="M235.22,252.35a168.71,168.71,0,0,1-104.49,9.12C97.44,274,65.24,295.86,48.54,318c-8.46,11-8.13,29,9.89,30.65,7.36.55,15.6-1.43,24-6.37Z" transform="translate(-30.41 -6.04)"/><path class="cls-4" d="M79.75,110.4c43.4-19.23,97.35-23.74,151.73-10.22L82.39,12.5c-26.71-15.71-52-1.65-52,30V138c0,7.37,3,13.85,7.7,19.34a15.67,15.67,0,0,1-.33-20.54c7.58-9.24,32.3-22.2,42-26.37Z" transform="translate(-30.41 -6.04)"/><path class="cls-5" d="M37.78,136.77c7.58-9.24,32.3-22.2,42-26.37A206.19,206.19,0,0,1,133.26,95a254.2,254.2,0,0,1,98.22,5.17C180.72,82.71,126,84.47,77.66,105.78c-11.54,5.06-34.61,17.47-43.18,27.14a13.52,13.52,0,0,0-2.75,13.41,31.6,31.6,0,0,0,6.38,11,15.67,15.67,0,0,1-.33-20.54Z" transform="translate(-30.41 -6.04)"/><path class="cls-6" d="M312.79,204.23c-9.45,3-20.44,4.94-31.43,6.81C239.29,218,197.64,228,158,243.78c-37.69,14.94-87.9,42-112.07,73.84-6.27,8.35-9,22.3,2,28.12a28.3,28.3,0,0,0,10.54,2.86c-16.59-1.76-16.81-16.92-8.46-28,16.7-22.08,47.36-42.52,80.76-59.11,9.34-4.61,18.9-9,28.46-13.07,41.86-17.58,79.22-26.26,123-36.15,11.53-2.64,22.52-5.27,30.65-8Z" transform="translate(-30.41 -6.04)"/><path class="cls-7" d="M323.67,156.54c-23.51-19.77-132.51.88-182.5,12.64a477.17,477.17,0,0,0,55.26,50.21c34.07-9.45,66.92-12.85,104.93-17.14,10.88-1.21,24.94-3.4,30.44-13,5.38-10.65,2.09-23.73-8.13-32.74Z" transform="translate(-30.41 -6.04)"/><path class="cls-8" d="M82.61,93A219.15,219.15,0,0,1,200.5,81.94L82.39,12.5A47.09,47.09,0,0,0,68.21,6.79c-13.29-2.75-25.71,6.59-20,20A497.11,497.11,0,0,0,82.61,93Z" transform="translate(-30.41 -6.04)"/><text class="cls-9" transform="translate(356.55 229.87)">CINEM<tspan class="cls-10" x="502.78" y="0">A</tspan><tspan class="cls-11" x="621.03" y="0">X</tspan></text><path class="cls-12" d="M448.74,238.09q-26.36,0-40.17-14.67t-13.8-41.65A64,64,0,0,1,399,157.83,51.65,51.65,0,0,1,410.52,140,48.37,48.37,0,0,1,428,129a63.1,63.1,0,0,1,22-3.74,71,71,0,0,1,12.48,1,82.29,82.29,0,0,1,9.83,2.34,49.74,49.74,0,0,1,7,2.73q2.81,1.41,4.06,2.19l-7,19.65a59.65,59.65,0,0,0-11.63-4.52,55.33,55.33,0,0,0-15.05-1.87,33.24,33.24,0,0,0-11,1.87,24.78,24.78,0,0,0-9.51,6,29.71,29.71,0,0,0-6.63,10.68A44.69,44.69,0,0,0,420,181.3a56.93,56.93,0,0,0,1.64,14,29.66,29.66,0,0,0,5.3,11.15,25.39,25.39,0,0,0,9.6,7.41,34.11,34.11,0,0,0,14.35,2.73,66.19,66.19,0,0,0,9.51-.62,69.29,69.29,0,0,0,7.49-1.49,38.43,38.43,0,0,0,5.77-1.95c1.67-.72,3.17-1.4,4.53-2l6.71,19.5q-5.16,3.12-14.51,5.61A84.31,84.31,0,0,1,448.74,238.09Z" transform="translate(-30.41 -6.04)"/><path class="cls-12" d="M500.54,127.8h24.33V235.9H500.54Z" transform="translate(-30.41 -6.04)"/><path class="cls-12" d="M622.37,235.9q-10.46-18.56-22.62-36.66a372.81,372.81,0,0,0-25.9-34.16V235.9h-24V127.8h19.81q5.15,5.14,11.39,12.63t12.71,16q6.48,8.51,12.87,17.63t12,17.55V127.8h24.18V235.9Z" transform="translate(-30.41 -6.04)"/><path class="cls-12" d="M667.77,235.9V127.8h73v20.43H692.1v21.22h43.21v20H692.1v26.05h52.26V235.9Z" transform="translate(-30.41 -6.04)"/><path class="cls-12" d="M791,127.8q2.82,5.14,6.49,12.71t7.67,16.38q4,8.82,7.9,18t7.35,17.31l7.35-17.31q3.91-9.21,7.9-18t7.66-16.38q3.67-7.56,6.5-12.71H872q1.56,10.76,2.88,24.1t2.34,27.77q1,14.43,1.88,28.94t1.48,27.29H856.83q-.47-15.75-1.24-34.31t-2.34-37.44L847,178.65q-3.45,8-6.81,15.91t-6.49,15.21q-3.13,7.26-5.32,12.41h-17Q809.17,217,806,209.77t-6.5-15.21q-3.36-8-6.8-15.91t-6.26-14.5q-1.56,18.87-2.34,37.44t-1.25,34.31H759.18q.62-12.78,1.48-27.29t1.87-28.94q1-14.43,2.34-27.77t2.89-24.1Z" transform="translate(-30.41 -6.04)"/><path class="cls-12" d="M974.76,235.9q-1.82-5.62-3.88-11.57t-4.14-11.83H924.52l-4.11,11.86q-2.05,6-3.83,11.54H891.31q6.11-17.46,11.58-32.29t10.71-27.92q5.25-13.11,10.33-24.88t10.57-23h23.07q5.32,11.22,10.5,23t10.42,24.88q5.25,13.09,10.73,27.92t11.6,32.29Zm-29.24-83.61q-.81,2.36-2.39,6.41t-3.57,9.36q-2,5.33-4.48,11.7t-5,13.4H961q-2.49-7-4.81-13.44T951.74,168q-2.09-5.31-3.67-9.36T945.52,152.29Z" transform="translate(-30.41 -6.04)"/><path class="cls-12" d="M1082.62,235.9q-4.56-9-10-18.29a66.28,66.28,0,0,0-12.47-15.67q-2.19,2.42-5.53,6.71t-6.7,9.12q-3.35,4.83-6.27,10t-4.34,8.12h-27.77a281.69,281.69,0,0,1,16.12-26.14q9.28-13.48,20.72-28.64l-35.28-53.32h29.49l20.6,31.3,21-31.3H1110L1074.93,180a331.2,331.2,0,0,1,22.72,31.7q8.92,14.42,14.08,24.23Z" transform="translate(-30.41 -6.04)"/></svg>