<?xml version="1.0" standalone="no"?>
<!DOCTYPE svg PUBLIC "-//W3C//DTD SVG 20010904//EN"
 "http://www.w3.org/TR/2001/REC-SVG-20010904/DTD/svg10.dtd">
<svg version="1.0" xmlns="http://www.w3.org/2000/svg"
 width="96.000000pt" height="96.000000pt" viewBox="0 0 96.000000 96.000000"
 preserveAspectRatio="xMidYMid meet">
<metadata>
Created by potrace 1.14, written by Peter Selinger 2001-2017
</metadata>
<g transform="translate(0.000000,96.000000) scale(0.100000,-0.100000)"
fill="#000000" stroke="none">
<path d="M102 953 c-33 -13 -42 -60 -42 -221 0 -151 1 -160 23 -184 29 -31 72
-58 94 -58 10 0 -1 -10 -25 -21 -23 -12 -52 -35 -65 -53 -21 -29 -22 -41 -22
-194 l0 -164 27 -23 c47 -41 82 -25 486 217 36 22 44 35 10 17 -43 -23 -228
-33 -228 -11 0 14 157 71 281 102 222 56 259 73 259 119 0 67 -29 86 -164 106
-116 18 -224 52 -346 112 l-45 22 95 0 c52 0 113 -4 135 -9 l40 -9 -25 19
c-22 16 -289 176 -373 223 -30 16 -87 21 -115 10z"/>
</g>
</svg>
